<svg xmlns="http://www.w3.org/2000/svg" viewBox="0 0 274 274"><defs><style>.cls-1{fill:#1ea6b3;}</style></defs><title>Asset 5</title><g id="Layer_2" data-name="Layer 2"><g id="Layer_1-2" data-name="Layer 1"><path class="cls-1" d="M245.56,53.44q-9.37.12-20.15.44-13.52.4-28,1.39t-27.08,3a134.71,134.71,0,0,0-22.23,5.34q-9.66,3.32-13.71,8.37-2.11,5.6-5.08,16.57c-.57,2.1-1.18,4.29-1.82,6.56a28.9,28.9,0,0,1,3.05,6.65A107.91,107.91,0,0,1,134,115.35q1.43,7.47,2.29,15.44t1.44,14.78q.58,6.81,1,11.58t1,5.84a2.2,2.2,0,0,0,2.48-1,17.51,17.51,0,0,0,1.17-2.48A41.16,41.16,0,0,1,144.9,155q1.29-3.35,3-7.77l3.56-9.44q1.89-5,3.66-9.47t3-7.77q1.2-3.32,1.64-4.51,12.09-18.42,21.39-28.5T197.2,74.35q6.81-3.09,11.39,0T215.88,85a79.28,79.28,0,0,1,3.79,19q1.07,11.46,1,25.07,0,1.88.17,7.78t.32,13.9q.14,8,.47,16.88t.47,16.88q.14,8,.32,13.9t.17,7.78c0,.13.19,1,.43,2.57s.43,3.51.55,5.77.19,4.67.2,7.25A32.17,32.17,0,0,1,223,229a14.59,14.59,0,0,1-2.43,5.61A5.29,5.29,0,0,1,216,236.8c-.13,0-.54-.14-1.22-.54a7.27,7.27,0,0,1-1.35-.91c-.17-.09-.34-.41-.53-1a3,3,0,0,1-.22-1.29,23.49,23.49,0,0,0,0-2.51q-.06-2.07,0-4.39t0-4.39q-.06-2.07-.06-2.7-.34-19.32-.78-34.54t-1-29.65q-.6-14.43-1.57-29.68t-2.38-34.64l-1.37-4.14a18.29,18.29,0,0,0-11.65,4.27,50.24,50.24,0,0,0-10.47,11.62A128.23,128.23,0,0,0,174,118.91q-4.44,9.31-8.26,19.25t-7.32,19.56q-3.51,9.63-6.5,17.62a138.78,138.78,0,0,1-5.71,13.38q-2.71,5.39-5,6.77a8.14,8.14,0,0,1-4.3.9q-2.73,0-3-1l-4.24-12.81q-.12-2.26-.58-7.12T128,164.56q-.65-6.06-1.29-12.74t-1.29-12.74q-.65-6.06-1.17-10.79t-.71-7.18q-.49-4.64-1-9.07v-.08l-.48,1.58q-4.28,14-9.7,29.71t-12.06,30.51a226.88,226.88,0,0,1-14.56,27.5,88,88,0,0,1-17.33,20.68A43.64,43.64,0,0,1,48.24,232a28.27,28.27,0,0,1-9.84.1A137,137,0,0,0,245.56,53.44Z"/><path class="cls-1" d="M140.42,0A137.08,137.08,0,0,0,8.35,184.19l0,0c1-3.41,1.47-5.54,3.25-7.12,5.59-2.8,11.25,3.17,4.67,6.08-1.48.77-3.06,5.32-3.08,10.23.12,1.13.27,2.26.47,3.38A137,137,0,0,0,24.5,215.18a14.12,14.12,0,0,0,3.88,1q15.92,1.63,27.74-4.59A65.35,65.35,0,0,0,76.8,194.28a111.15,111.15,0,0,0,15.12-25.52q6.25-14.45,11.17-29.55t9-29.24a254.69,254.69,0,0,1,8.23-24.59q2.68-9,.06-12.15t-8.52-2.79a57,57,0,0,0-13.95,3q-8,2.62-16,5.25a101.54,101.54,0,0,1-14.83,3.8q-6.91,1.18-10.52-1.37-5.07-3.56-3.27-6.83t8.26-6.18a95.72,95.72,0,0,1,16.71-5.35q10.25-2.44,22-4.61t23.91-3.95q12.2-1.78,22.79-3t18.59-2q8-.78,11.2-1.19l11.57-1.06q7.38-.67,15-1.47t13.53-1.26q5.9-.46,7.13-.44,4.66-.12,11.67-.2h1.58A136.58,136.58,0,0,0,140.42,0Z"/></g></g></svg>